<?xml version="1.0" encoding="UTF-8"?>
<svg width="26px" height="26px" viewBox="0 0 26 26" version="1.1" xmlns="http://www.w3.org/2000/svg" xmlns:xlink="http://www.w3.org/1999/xlink">
    <!-- Generator: sketchtool 48.1 (47250) - http://www.bohemiancoding.com/sketch -->
    <title>6D38CFD3-2DF1-4407-ABA7-C214990A0311</title>
    <desc>Created with sketchtool.</desc>
    <defs></defs>
    <g id="img_category" stroke="none" stroke-width="1" fill="none" fill-rule="evenodd">
        <g fill="#898989" id="Combined-Shape">
            <path d="M9.8284119,6.59516348 L12.3642035,4.42162782 C13.113183,3.77964542 14.2183895,3.77964542 14.967369,4.42162782 L17.5031606,6.59516348 C18.1680983,7.16511007 18.5507865,7.99715862 18.5507865,8.87293328 L18.5507865,18.450272 C18.5507865,20.1071263 17.2076407,21.450272 15.5507865,21.450272 L11.780786,21.450272 C10.1239318,21.450272 8.78078602,20.1071263 8.78078602,18.450272 L8.78078602,8.87293328 C8.78078602,7.99715862 9.16347421,7.16511007 9.8284119,6.59516348 Z M13.6657863,10.2845572 C14.436618,10.2845572 15.0615006,9.65967462 15.0615006,8.88884287 C15.0615006,8.11801112 14.436618,7.49312852 13.6657863,7.49312852 C12.8949545,7.49312852 12.2700719,8.11801112 12.2700719,8.88884287 C12.2700719,9.65967462 12.8949545,10.2845572 13.6657863,10.2845572 Z" transform="translate(13.665786, 12.665786) rotate(45.000000) translate(-13.665786, -12.665786) "></path>
        </g>
    </g>
</svg>